<?xml version="1.0" encoding="iso-8859-1"?>
<!-- Uploaded to: SVG Repo, www.svgrepo.com, Generator: SVG Repo Mixer Tools -->
<!DOCTYPE svg PUBLIC "-//W3C//DTD SVG 1.1//EN" "http://www.w3.org/Graphics/SVG/1.1/DTD/svg11.dtd">
<svg fill="#000000" version="1.1" id="Capa_1" xmlns="http://www.w3.org/2000/svg" xmlns:xlink="http://www.w3.org/1999/xlink" 
	 width="800px" height="800px" viewBox="0 0 313.628 313.628"
	 xml:space="preserve">
<g>
	<path d="M276.037,158.426c-4.079-3.575-10.899-26.626-11.961-32.1c4.113-3.112,7.841-8.439,0.202-22.088
		c-7.272-12.982-5.753-20.317-4.538-26.212c0.318-1.524,0.613-2.963,0.76-4.418c0.664-6.658-8.281-21.941-11.789-27.639
		l7.176-10.162c0.442-0.628,0.609-1.415,0.456-2.169c-0.165-0.753-0.63-1.408-1.284-1.807C252.917,30.529,201.889,0,146.631,0
		c-32.779,0-60.043,10.852-81.03,32.259C44.011,54.267,23.526,86.09,27.72,125.407c0.154,1.406,0.365,2.825,0.582,4.249h4.544h1.133
		h9.5h46.894c1.535,0,2.779-1.241,2.779-2.781v-9.036c0-1.535-1.244-2.775-2.779-2.775h-5.915c-0.743,0-1.341-0.604-1.341-1.343
		V89.348c0-0.736,0.599-1.338,1.341-1.338h88.956c0.739,0,1.338,0.602,1.338,1.338v4.35c0,1.535,1.242,2.775,2.779,2.775h7.576
		c1.533,0,2.775-1.244,2.775-2.775v-2.715h12.755v4.544c0,1.167,0.726,2.204,1.82,2.607l6.879,2.538v1.95v1.217l-7.104,3.364
		c-0.972,0.458-1.592,1.438-1.592,2.508v3.635h-12.754v-2.712c0-1.535-1.242-2.775-2.775-2.775h-7.577
		c-1.536,0-2.778,1.24-2.778,2.775v6.179c0,0.739-0.599,1.341-1.338,1.341h-3.833c-1.533,0-2.775,1.244-2.775,2.775v1.374
		c0,0.736-0.603,1.338-1.342,1.338h-29.248c-1.535,0-2.779,1.244-2.779,2.775s1.244,2.779,2.779,2.779
		c0.739,0,1.343,0.599,1.343,1.343v7.207c0,0.737-0.604,1.34-1.343,1.34c-1.535,0-2.779,1.244-2.779,2.779v1.03
		c0,1.532,1.244,2.775,2.779,2.775c0.739,0,1.343,0.599,1.343,1.338v7.212c0,0.739-0.604,1.342-1.343,1.342h-6.3
		c-1.535,0-2.778,1.244-2.778,2.775v11.327c0,0.739-0.603,1.342-1.342,1.342c-1.537,0-2.775,1.238-2.775,2.775
		c0,1.536,1.239,2.778,2.775,2.778h12.208c0.739,0,1.338,0.599,1.338,1.338v29.862c0,0.739-0.599,1.345-1.338,1.345H90.373
		c-0.739,0-1.345-0.605-1.345-1.345v-29.855c0-0.739,0.606-1.341,1.345-1.341c1.535,0,2.779-1.246,2.779-2.779v-16.97
		c0-1.535-1.244-2.781-2.779-2.781h-46.89h-2.475h-6.016c0.732,1.841,1.521,3.69,2.365,5.556c2.233,4.928,4.829,9.938,7.905,15.041
		c0.611,1.016,1.069,1.759,1.297,2.225c0.592,1.177,1.655,3.059,3.13,5.667c7.029,12.408,23.486,41.473,24.036,59.768
		c0.662,21.771-18.793,67.006-18.993,67.458c-0.372,0.862-0.284,1.848,0.224,2.628c0.515,0.78,1.388,1.253,2.324,1.253h140.045
		c0.752,0,1.475-0.309,1.994-0.85c0.524-0.54,0.809-1.272,0.781-2.025l-0.671-19.5c0.701-2.439,6.457-19.143,32.384-19.143
		c2.06,0,4.227,0.109,6.44,0.314c0.305,0.03,0.616,0,0.917-0.068c0.564-0.137,13.891-3.477,18.521-13.288
		c2.358-4.986,2.061-10.605-0.886-16.704c-1.615-3.344-2.721-5.749-3.48-7.474c5.308-1.431,12.549-5.4,11.269-13.06
		c-0.479-2.881-1.317-4.835-2.285-6.149c1.17-1.033,2.207-2.323,2.706-3.863c0.579-1.797,0.353-3.655-0.663-5.366
		c-4.172-7.029-4.511-9.972-4.452-10.938c0.071-0.003,0.16-0.007,0.256-0.007c1.338,0,3.419,0.35,5.619,0.719
		c3.016,0.503,6.431,1.075,9.627,1.075c2.823,0,5.085-0.441,6.916-1.362c1.537-0.767,3.471-2.546,4.004-6.673
		C287.48,180.156,281.088,162.844,276.037,158.426z M280.801,188.568c-0.191,1.513-0.627,2.237-0.973,2.412
		c-1.026,0.517-2.519,0.777-4.432,0.777c-2.737,0-5.909-0.527-8.709-0.999c-2.543-0.432-4.736-0.795-6.536-0.795
		c-0.808,0-3.262,0-4.638,1.835c-2.412,3.217-1.122,8.774,4.06,17.501c0.271,0.458,0.201,0.67,0.157,0.811
		c-0.373,1.153-2.525,2.618-4.24,3.367c-0.086,0.031-0.291,0.113-0.373,0.158c-1.328,0.667-1.861,2.255-1.242,3.617
		c0.612,1.358,2.234,1.978,3.607,1.416c0.126,0,1.081,0.76,1.639,4.087c0.667,4.021-4.449,5.981-7.128,6.728
		c-1.041-1.205-1.899-1.66-2.94-1.66c-0.954,0-1.943,0.545-2.446,1.353c-0.907,1.444-1.321,2.101,5.194,15.611
		c2.211,4.572,2.495,8.467,0.877,11.902c-3.104,6.595-12.341,9.568-14.404,10.164c-2.214-0.195-4.384-0.294-6.458-0.294
		c-32.223,0-37.835,23.544-37.89,23.783c-0.048,0.229-0.072,0.466-0.065,0.698l0.593,17.036H61.456
		c4.808-11.697,18.404-46.59,17.823-65.956c-0.599-19.66-16.914-48.481-24.758-62.338c-1.384-2.433-2.471-4.356-2.993-5.407
		c-0.269-0.544-0.796-1.42-1.514-2.604c-2.481-4.121-4.632-8.173-6.531-12.18h44.115v12.001c-2.421,1.075-4.12,3.498-4.12,6.311
		v29.862c0,3.806,3.097,6.898,6.899,6.898h47.635c3.802,0,6.896-3.093,6.896-6.898v-29.862c0-3.802-3.094-6.896-6.896-6.896h-5.45
		c0.087-0.435,0.133-0.886,0.133-1.342v-8.552h3.528c3.802,0,6.901-3.094,6.901-6.896v-7.212c0-1.78-0.679-3.405-1.798-4.629
		c1.114-1.227,1.798-2.852,1.798-4.633v-7.207c0-0.46-0.049-0.909-0.133-1.343h22.48c3.319,0,6.098-2.358,6.748-5.491h1.201
		c3.802,0,6.893-3.09,6.893-6.896v-3.399h2.022v2.712c0,1.535,1.242,2.775,2.778,2.775h18.306c1.536,0,2.778-1.244,2.778-2.775
		v-4.652l7.108-3.366c0.968-0.458,1.588-1.436,1.588-2.508v-0.197h12.357c1.536,0,2.778-1.244,2.778-2.775
		c0-1.535-1.238-2.775-2.778-2.775h-12.357v-1.11c0-1.164-0.726-2.204-1.821-2.607l-6.878-2.533v-5.39
		c0-1.532-1.239-2.775-2.779-2.775H185.11c-1.537,0-2.779,1.244-2.779,2.775v2.715h-2.022v-1.574c0-3.799-3.09-6.896-6.892-6.896
		H84.461c-3.802,0-6.896,3.094-6.896,6.896v24.373c0,3.802,3.094,6.897,6.896,6.897h3.136v3.482h-54.31
		C29.71,87.05,49.117,56.993,69.561,36.146C89.466,15.85,115.394,5.554,146.625,5.554c46.805,0,91.858,23.36,102.959,29.541
		l-6.475,9.175c-0.657,0.918-0.682,2.137-0.083,3.086c5.209,8.215,12.351,21.618,11.943,25.697
		c-0.119,1.167-0.383,2.471-0.667,3.848c-1.335,6.437-3.155,15.261,5.13,30.05c6.263,11.186,3.142,13.543,1.276,14.948
		c-0.976,0.739-2.32,1.755-2.32,3.604c0,2.091,7.56,31.472,13.99,37.098C275.873,165.66,281.772,181.039,280.801,188.568z"/>
</g>
</svg>