<?xml version="1.0" standalone="no"?>
<!DOCTYPE svg PUBLIC "-//W3C//DTD SVG 20010904//EN"
 "http://www.w3.org/TR/2001/REC-SVG-20010904/DTD/svg10.dtd">
<svg version="1.0" xmlns="http://www.w3.org/2000/svg"
 width="93.000000pt" height="93.000000pt" viewBox="0 0 93.000000 93.000000"
 preserveAspectRatio="xMidYMid meet">

<g transform="translate(0.000000,93.000000) scale(0.100000,-0.100000)"
fill="#000000" stroke="none">
<path d="M0 813 l0 -116 30 46 c35 52 95 109 140 132 l31 16 -13 -23 c-7 -13
-39 -51 -71 -86 -31 -35 -71 -90 -87 -122 -30 -59 -30 -62 -30 -218 0 -146 2
-164 24 -213 19 -45 21 -56 10 -66 -10 -10 -15 -9 -23 5 -8 12 -10 -8 -11 -75
l0 -93 338 0 c375 0 347 -5 447 74 21 17 42 31 45 31 3 1 16 7 29 14 23 13 23
12 -4 -23 -15 -20 -46 -50 -68 -66 l-41 -30 92 0 92 0 0 108 c0 73 -3 102 -10
92 -5 -8 -10 -11 -10 -6 0 5 -9 1 -20 -9 -18 -16 -17 -11 7 41 26 54 28 70 31
201 l3 143 -36 76 c-35 73 -124 176 -174 203 -19 11 -19 10 -5 -16 29 -58 14
-117 -49 -180 -34 -36 -38 -43 -22 -43 15 -1 7 -12 -34 -50 l-54 -49 31 -38
c17 -21 49 -56 71 -78 45 -43 49 -56 25 -76 -14 -12 -26 -3 -93 70 l-77 84
-54 -51 -55 -51 37 6 c66 10 108 -39 153 -177 10 -30 29 -77 42 -103 l24 -48
-33 3 c-39 4 -51 24 -100 163 -34 98 -71 145 -111 145 -15 0 -44 -18 -76 -46
l-51 -46 0 -109 0 -109 -25 0 -25 0 0 280 0 280 25 0 25 0 0 -155 c0 -103 4
-155 11 -155 5 0 53 42 106 93 l95 93 -91 99 c-50 55 -91 102 -91 105 0 3 28
32 62 65 40 38 47 43 19 13 l-43 -46 67 -74 c38 -40 76 -82 86 -92 17 -18 19
-17 89 45 40 35 79 77 87 92 21 41 9 90 -32 131 -52 53 -123 56 -180 8 -12
-10 -10 -6 5 12 27 31 92 65 124 66 11 0 40 -10 65 -22 31 -15 46 -18 49 -10
9 29 106 -46 169 -131 l43 -59 0 121 0 121 -465 0 -465 0 0 -117z"/>
</g>
</svg>
