<svg width="60.8125732421875px"  xmlns="http://www.w3.org/2000/svg" viewBox="184.59371337890624 14 130.8125732421875 122"  preserveAspectRatio="xMidYMid"><defs><filter id="editing-hover" x="-100%" y="-100%" width="300%" height="300%"><feFlood flood-color="#052b4a" result="flood"></feFlood><feComposite operator="in" in2="SourceAlpha" in="flood" result="shadow"></feComposite><feOffset dx="-4" dy="-4" in="SourceGraphic" result="offset-1"></feOffset><feOffset dx="4" dy="4" in="shadow" result="offset-2"></feOffset><feMerge><feMergeNode in="offset-2"></feMergeNode><feMergeNode in="offset-1"></feMergeNode></feMerge></filter></defs><g filter="url(#editing-hover)"><g transform="translate(211.53031301498413, 104.44000053405762)"><path d="M30.91-4.38L30.91-4.38L30.91-4.38Q28.22-1.66 24.54-0.19L24.54-0.19L24.54-0.19Q20.86 1.28 17.22 1.28L17.22 1.28L17.22 1.28Q13.57 1.28 12.29 0.64L12.29 0.64L10.30 11.52L-2.69 12.80L6.14-32.64L16.58-33.73L15.74-29.31L15.74-29.31Q18.43-33.86 24-33.86L24-33.86L24-33.86Q30.27-33.86 33.60-29.82L33.60-29.82L33.60-29.82Q36.54-26.18 36.54-20.61L36.54-20.61L36.54-20.61Q36.54-15.04 35.07-11.07L35.07-11.07L35.07-11.07Q33.60-7.10 30.91-4.38ZM16.45-22.34L13.06-3.58L13.06-3.58Q14.40-2.43 16.06-2.43L16.06-2.43L16.06-2.43Q17.73-2.43 18.69-3.07L18.69-3.07L18.69-3.07Q19.65-3.71 20.35-4.99L20.35-4.99L20.35-4.99Q22.27-8.45 23.81-18.94L23.81-18.94L23.81-18.94Q24.26-22.02 24.26-25.02L24.26-25.02L24.26-25.02Q24.26-28.03 23.58-28.99L23.58-28.99L23.58-28.99Q22.91-29.95 21.63-29.95L21.63-29.95L21.63-29.95Q17.73-29.95 16.45-22.34L16.45-22.34ZM56.90-30.34L56.90-30.34L56.90-30.34Q60.35-33.92 67.65-33.92L67.65-33.92L67.65-33.92Q71.68-33.92 73.89-31.78L73.89-31.78L73.89-31.78Q76.10-29.63 76.10-25.70L76.10-25.70L76.10-25.70Q76.10-21.76 73.89-18.98L73.89-18.98L73.89-18.98Q71.68-16.19 67.58-15.04L67.58-15.04L67.58-15.04Q67.90-13.76 68.35-12.42L68.35-12.42L69.25-9.86L69.25-9.86Q70.46-6.59 71.42-5.44L71.42-5.44L71.42-5.44Q72.38-4.29 73.66-3.90L73.66-3.90L73.66-3.90Q72.96-1.28 70.40 0.13L70.40 0.13L70.40 0.13Q68.35 1.28 65.54 1.28L65.54 1.28L65.54 1.28Q57.28 1.28 56.19-11.46L56.19-11.46L56.19-11.46Q56-13.25 56-15.04L56-15.04L56-15.04Q59.20-15.94 61.44-18.94L61.44-18.94L61.44-18.94Q63.68-21.95 63.68-25.47L63.68-25.47L63.68-25.47Q63.68-28.99 61.18-28.99L61.18-28.99L61.18-28.99Q59.39-28.99 57.98-27.01L57.98-27.01L57.98-27.01Q56.58-25.02 55.94-21.63L55.94-21.63L51.71 0L38.78 1.28L47.74-44.80L60.61-46.08L59.14-38.46L59.14-38.46Q58.18-33.09 56.90-30.34Z" fill="#ffd5af"></path></g></g><style>text {
  font-size: 64px;
  font-family: Arial Black;
  dominant-baseline: central;
  text-anchor: middle;
}</style></svg>